<svg id="Layer_1" data-name="Layer 1" xmlns="http://www.w3.org/2000/svg" xmlns:xlink="http://www.w3.org/1999/xlink" viewBox="0 0 150 150"><defs><style>.cls-1{fill:#ff0;}.cls-2{fill:url(#linear-gradient);}.cls-3{fill:blue;}.cls-4{fill:url(#linear-gradient-2);}.cls-5{fill:url(#linear-gradient-3);}</style><linearGradient id="linear-gradient" x1="48.91" y1="47.24" x2="48.9" y2="23.85" gradientUnits="userSpaceOnUse"><stop offset="0" stop-color="#ff0"/><stop offset="0.23" stop-color="#990"/><stop offset="0.49" stop-color="#2c2c00"/><stop offset="0.61"/></linearGradient><linearGradient id="linear-gradient-2" x1="50.01" y1="122.73" x2="80.61" y2="105.98" gradientUnits="userSpaceOnUse"><stop offset="0.12" stop-color="blue"/><stop offset="0.43" stop-color="#00007a"/><stop offset="0.72"/></linearGradient><linearGradient id="linear-gradient-3" x1="40.39" y1="108.55" x2="40.39" y2="58.02" gradientUnits="userSpaceOnUse"><stop offset="0" stop-color="#ff0"/><stop offset="0.25" stop-color="#990"/><stop offset="0.54" stop-color="#2c2c00"/><stop offset="0.67"/></linearGradient></defs><title>BM</title><path class="cls-1" d="M61.48,39.4l-6.26-17L55,21.69l-22.71-.16v.38l-.1,13.28H46.41Q56.61,35.18,61.48,39.4Zm-13,26.27,0-.42H31.93v.42l-.09,12.62v.33H48.9v-.33Zm13,14.12-.14-.06.14.38L69.31,101l0-.1a19.92,19.92,0,0,0,.59-5Q69.93,83.41,61.44,79.79Zm11-10.72-.12-.33a28.73,28.73,0,0,1-4.37,2.11,27.44,27.44,0,0,1,5.88,2Z"/><path class="cls-2" d="M65.91,51.39a13,13,0,0,1-4.62,10,15.54,15.54,0,0,1-5.63,2.9l-.15,0-7.2-19.12-.47.07.63,19.94H31.93l.21-29.45v-.62H46.41q10.2,0,15.07,4.22l.32.86Z"/><path class="cls-3" d="M73.77,28.38q-7.06-5.29-18.54-6.69a71.14,71.14,0,0,0-8.81-.51H11.54V126h20v-.38h0L31.6,112H29.06V78.29H53a21.36,21.36,0,0,1,8.26,1.44l-5.64-15-.15-.38a26.27,26.27,0,0,1-7,.89H29.06V35.18H46.41q10.2,0,15.07,4.22a3.11,3.11,0,0,1,.32.27q4.13,3.81,4.13,10.87c0,.13,0,.26,0,.38s0,.31,0,.47l0,0,6.37,17.31.12-.07a22.9,22.9,0,0,0,6.87-6.22,21.07,21.07,0,0,0,4.08-12.72Q83.37,35.58,73.77,28.38ZM87.35,95.49a26.05,26.05,0,0,0-5.07-15.8A22.14,22.14,0,0,0,74,72.93l-.16-.07.16.44L84.54,102h.4l2.42-6.27h0A1.72,1.72,0,0,0,87.35,95.49Z"/><path class="cls-4" d="M76.25,119.43Q66.92,126,51,126H49l.08-11.79,0-2.21H51q9.2,0,14-4.11A13.14,13.14,0,0,0,69.31,101l0,.07Z"/><path class="cls-1" d="M138.46,22.28l-.75,104.06-17.52-.13.25-35.42,2.09-45.1-.48-.08L90.36,126l-11.67-.08-2.42-6.45,0,0-6.91-18.36,0-.07,0-.1a19.92,19.92,0,0,0,.59-5q0-12.48-8.48-16.1l-.14-.06-5.64-15-.15-.38.15,0a15.54,15.54,0,0,0,5.63-2.9,13,13,0,0,0,4.62-10l0,0,6.37,17.31a28.73,28.73,0,0,1-4.37,2.11,27.44,27.44,0,0,1,5.88,2l.16.44L84.54,102h.4l2.42-6.27h0l28.39-73.58Z"/><polygon class="cls-5" points="49.27 90.81 49.13 111.96 49.12 114.17 49.03 125.96 49.02 128.82 31.5 128.69 31.52 125.96 31.52 125.58 31.6 114.17 31.84 78.29 48.9 78.29 49.27 90.81"/></svg>